# AST/ASF file generated using VICON BodyLanguage
# -----------------------------------------------
:version 1.10
:name VICON
:units
  mass 1.0
  length 0.1
  angle deg
:documentation
   .ast/.asf automatically generated from VICON data using
   VICON BodyBuilder and BodyLanguage model FULLBODY5.MOD
:root
   order TX TY TZ RZ RY RX
   axis XYZ
   position 0 0 0  
   orientation 0 -0 0 
:bonedata
  begin
     id 1 
     name lhipjoint
     direction 0.969109 -0.218487 0.11442 
     length 0.544217 
     axis 0 -0 0  XYZ
  end
  begin
     id 2 
     name lfemur
     direction 0.173648 -0.984808 0  
     length 1.81499  
     axis 0 -0 10  XYZ
    dof rx ry rz
    limits (-180.0 180.0)
           (-180.0 180.0)
           (-180.0 180.0)
  end
  begin
     id 3 
     name ltibia
     direction 0.173515 -0.984831 0   
     length 1.55296   
     axis 0 -0 10   XYZ
    dof rx ry rz
    limits (-180.0 180.0)
           (-180.0 180.0)
           (-180.0 180.0)
  end
  begin
     id 4 
     name lfoot
     direction 7.36097e-012 -0.333012 0.942922   
     length 0.509062   
     axis -90 -1.73656e-015 10   XYZ
    dof rx ry rz
    limits (-180.0 180.0)
           (-180.0 180.0)
           (-180.0 180.0)
  end
  begin
     id 5 
     name ltoes
     direction 7.7847e-012 -4.42403e-011 1   
     length 0.249732   
     axis -90 -1.73656e-015 10   XYZ
    dof rx ry rz
    limits (-180.0 180.0)
           (-180.0 180.0)
           (-180.0 180.0)
  end
  begin
     id 6 
     name rhipjoint
     direction -0.966745 -0.226554 0.118645   
     length 0.524838  
     axis 0 -0 0  XYZ 
  end
  begin
     id 7 
     name rfemur
     direction -0.173648 -0.984808 0   
     length 1.84625   
     axis 0 -0 -10   XYZ
    dof rx ry rz
    limits (-180.0 180.0)
           (-180.0 180.0)
           (-180.0 180.0)
  end
  begin
     id 8 
     name rtibia
     direction -0.173714 -0.984796 0   
     length 1.577   
     axis 0 -0 -10   XYZ
    dof rx ry rz
    limits (-180.0 180.0)
           (-180.0 180.0)
           (-180.0 180.0)
 end
 begin
     id 9 
     name rfoot
     direction -0.0183819 -0.0406144 0.999006   
     length 0.490111  
     axis -90 1.73656e-015 -10   XYZ
    dof rx ry rz
    limits (-180.0 180.0)
           (-180.0 180.0)
           (-180.0 180.0)
  end
  begin
     id 10 
     name rtoes
     direction -7.79087e-012 -4.42375e-011 1   
     length 0.245053   
     axis -90 1.73656e-015 -10   XYZ
    dof rx ry rz
    limits (-180.0 180.0)
           (-180.0 180.0)
           (-180.0 180.0)
  end
  begin
     id 11 
     name lowerback
     direction -0.0664844 0.980601 0.184393   
     length 0.458979   
     axis 0 -0 0   XYZ
    dof rx ry rz
    limits (-180.0 180.0)
           (-180.0 180.0)
           (-180.0 180.0)
  end
  begin
     id 12 
     name upperback
     direction 0.0135995 0.999573 0.02588   
     length 0.463983   
     axis 0 -0 0   XYZ
    dof rx ry rz
    limits (-180.0 180.0)
           (-180.0 180.0)
           (-180.0 180.0)
  end
  begin
     id 13 
     name thorax
     direction 0.0468402 0.997311 -0.0563691   
     length 0.482746   
     axis 0 -0 0   XYZ
    dof rx ry rz
    limits (-180.0 180.0)
           (-180.0 180.0)
           (-180.0 180.0)
  end
  begin
     id 14 
     name lowerneck
     direction -0.00174311 0.988586 -0.150647   
     length 0.364383   
     axis 0 -0 0   XYZ
    dof rx ry rz
    limits (-180.0 180.0)
           (-180.0 180.0)
           (-180.0 180.0)
  end
  begin
     id 15 
     name upperneck
     direction -0.02653 0.999379 -0.0231908   
     length 0.361006   
     axis 0 -0 0   XYZ
    dof rx ry rz
    limits (-180.0 180.0)
           (-180.0 180.0)
           (-180.0 180.0)
  end
  begin
     id 16
     name head
     direction -0.00819207 0.999941 0.00714285  
     length 0.378714  
     axis 0 -0 0   XYZ
    dof rx ry rz
    limits (-180.0 180.0)
           (-180.0 180.0)
           (-180.0 180.0)
  end
  begin
     id 17 
     name lshoulderjoint
     direction 0.981627 -0.190809 0  
     length 0.612969  
     axis 0 -0 -11   XYZ
    dof rx ry rz
    limits (-180.0 180.0)
           (-180.0 180.0)
           (-180.0 180.0)
  end
  begin
     id 18 
     name lhumerus
     direction 0.48481 -0.87462 -9.72962e-027   
     length 1.19637   
     axis -180 5.14477e-009 -151   XYZ
    dof rx ry rz
    limits (-180.0 180.0)
           (-180.0 180.0)
           (-180.0 180.0)
  end
  begin
     id 19
     name lradius
     direction 0.48481 -0.87462 -2.35761e-026   
     length 0.637735   
     axis -180 5.14477e-009 -151   XYZ
    dof rx ry rz
    limits (-180.0 180.0)
           (-180.0 180.0)
           (-180.0 180.0)
  end
  begin
     id 20
     name lwrist
     direction 0.48481 -0.87462 -5.51856e-026   
     length 0.318868   
     axis -180 5.14477e-009 -151   XYZ
    dof rx ry rz
    limits (-180.0 180.0)
           (-180.0 180.0)
           (-180.0 180.0)
  end
  begin
     id 21 
     name lhand
     direction 0.477747 -0.861928 -0.169816   
     length 0.29526   
     axis -180 5.14477e-009 -151   XYZ
    dof rx ry rz
    limits (-180.0 180.0)
           (-180.0 180.0)
           (-180.0 180.0)
  end
  begin
     id 22 
     name rshoulderjoint
     direction -0.981627 -0.190809 0   
     length 0.572347  
     axis 0 -0 11   XYZ 
    dof rx ry rz
    limits (-180.0 180.0)
           (-180.0 180.0)
           (-180.0 180.0)
  end
  begin
     id 23 
     name rhumerus
     direction -0.48481 -0.87462 1.64836e-026  
     length 1.28846   
     axis 180 5.14477e-009 151   XYZ
    dof rx ry rz
    limits (-180.0 180.0)
           (-180.0 180.0)
           (-180.0 180.0)
  end
  begin
     id 24 
     name rradius
     direction -0.48481 -0.87462 2.86827e-026   
     length 0.62107   
     axis 180 5.14477e-009 151   XYZ
    dof rx ry rz
    limits (-180.0 180.0)
           (-180.0 180.0)
           (-180.0 180.0)
  end
  begin
     id 25 
     name rwrist
     direction -0.48481 -0.87462 5.20942e-026   
     length 0.310535   
     axis 180 5.14477e-009 151   XYZ
    dof rx ry rz
    limits (-180.0 180.0)
           (-180.0 180.0)
           (-180.0 180.0)
  end
  begin
     id 26
     name rhand
     direction -0.477664 -0.861515 -0.172133   
     length 0.291321   
     axis 180 5.14477e-009 151   XYZ
    dof rx ry rz
    limits (-180.0 180.0)
           (-180.0 180.0)
           (-180.0 180.0)
  end
:hierarchy
  begin
    root lhipjoint rhipjoint lowerback 
    lhipjoint lfemur
    lfemur ltibia
    ltibia lfoot
    lfoot ltoes
    rhipjoint rfemur
    rfemur rtibia
    rtibia rfoot
    rfoot rtoes
    lowerback upperback
    upperback thorax
    thorax lowerneck lshoulderjoint rshoulderjoint
    lowerneck upperneck
    upperneck head
    lshoulderjoint lhumerus
    lhumerus lradius
    lradius lwrist
    lwrist lhand
    rshoulderjoint rhumerus
    rhumerus rradius
    rradius rwrist
    rwrist rhand
  end

:FULLY-SPECIFIED
:DEGREES
2523
root 10.004 3.68314 -0.169809 463.534 -68.7034 101.982
lowerback -25.3317 0.762008 -8.58494
upperback -6.79699 2.59782 -0.39512
thorax 6.07656 0.970344 5.22149
lowerneck 10.7284 -1.85344 1.73405
upperneck 4.33875 -2.4394 -1.13717
head -0.463405 -1.25668 -0.552187
rshoulderjoint -2.60954 7.98298 -29.1685
rhumerus 350.318 -4.11927 -412.886
rradius 23.3327 -5.56597e-014 -1.46306e-013
rwrist 3.87329e-013 6.49018 -2.72891e-013
rhand 7.14155 -5.69788 30.1066
lshoulderjoint -1.91175 -5.58097 29.9431
lhumerus 354.422 14.2737 415.485
lradius 16.4971 -5.725e-014 -9.89948e-014
lwrist 4.54327e-013 -11.4549 -6.49039e-014
lhand 7.72434 9.02886 -39.2028
rfemur -23.6926 22.4049 3.53924
rtibia 7.18842 3.81667e-014 2.06736e-014
rfoot -179.967 -43.7976 157.12
rtoes -1.39149e-013 -9.38885e-014 1.63003e-014
lfemur -12.4274 7.18133 -18.6361
ltibia -8.11041e-014 0 5.56597e-015
lfoot -10.2002 7.58788 28.3091
ltoes 1.52667e-013 -1.10524e-013 7.95139e-014
2524
root 10.0029 3.68328 -0.177012 464.598 -68.7577 102.976
lowerback -25.2426 0.706598 -8.47705
upperback -6.70572 2.49949 -0.351397
thorax 6.15298 0.919997 5.17945
lowerneck 10.6677 -1.79856 1.68619
upperneck 4.31886 -2.37199 -1.24729
head -0.459964 -1.2221 -0.581172
rshoulderjoint -2.63543 8.04826 -29.199
rhumerus 350.38 -4.39355 -412.842
rradius 23.3438 0 -1.11319e-013
rwrist 6.2706e-013 6.20273 -2.76738e-013
rhand 7.11859 -5.38939 29.8553
lshoulderjoint -1.89979 -5.54189 29.9559
lhumerus 354.855 13.4868 415.702
lradius 16.6769 9.54166e-015 -9.32797e-014
lwrist 6.28562e-013 -10.9931 -6.52052e-014
lhand 7.69414 8.63727 -38.773
rfemur -23.2346 22.7673 3.54773
rtibia 6.40576 6.36111e-015 -1.98785e-015
rfoot -180.381 -43.7755 157.468
rtoes 2.54444e-014 -2.72583e-014 5.28767e-014
lfemur -12.2539 6.94335 -18.5139
ltibia -3.49861e-014 -2.06736e-014 -1.59028e-015
lfoot -10.1356 7.4563 29.0138
ltoes 4.33351e-014 9.54166e-015 4.77083e-014
2525
root 10.0024 3.6834 -0.18457 465.493 -68.8104 103.834
lowerback -24.9161 0.735873 -8.20634
upperback -6.82056 2.43865 -0.519151
thorax 5.89484 0.904006 4.80725
lowerneck 10.8435 -1.80209 2.07374
upperneck 4.37733 -2.33589 -1.36653
head -0.477762 -1.19963 -0.683526
rshoulderjoint -2.5928 8.04695 -28.926
rhumerus 350.18 -4.64536 -412.891
rradius 23.3231 6.67916e-014 1.09729e-013
rwrist 1.50345e-013 6.12625 1.34351e-013
rhand 7.00531 -5.28695 29.6448
lshoulderjoint -1.9722 -5.60344 30.4259
lhumerus 354.939 12.5915 415.94
lradius 16.9181 1.28812e-013 -9.93923e-015
lwrist 1.3264e-013 -10.539 -6.42982e-014
lhand 7.51626 8.36319 -38.2897
rfemur -22.8437 23.0876 3.61187
rtibia 5.74173 3.18055e-014 7.95139e-015
rfoot -180.65 -43.7069 157.627
rtoes -1.43125e-014 1.54058e-015 9.70069e-014
lfemur -12.1042 6.65536 -18.3429
ltibia 5.08889e-014 -2.38542e-015 0
lfoot -10.0459 7.23455 29.699
ltoes 6.44062e-014 -3.29983e-014 1.84472e-013
2526
root 10.0015 3.68314 -0.192117 466.319 -68.8556 104.628
lowerback -24.9318 0.630061 -8.22373
upperback -6.66932 2.3126 -0.320765
thorax 6.07812 0.835913 5.00523
lowerneck 10.8056 -1.74407 1.76879
upperneck 4.31922 -2.29216 -1.50181
head -0.487177 -1.17941 -0.676106
rshoulderjoint -2.66325 8.14743 -29.171
rhumerus 350.388 -5.04325 -412.771
rradius 23.2429 -9.22361e-014 3.18055e-014
rwrist 3.86569e-013 5.40923 8.46617e-014
rhand 7.17451 -4.51577 29.3909
lshoulderjoint -1.93777 -5.58232 30.1781
lhumerus 355.456 11.7396 416.128
lradius 17.228 -3.81667e-014 -3.58558e-014
lwrist 4.13139e-013 -9.79975 2.21901e-014
lhand 7.52541 7.80352 -37.703
rfemur -22.5176 23.3838 3.68335
rtibia 5.23932 1.27222e-014 1.98785e-015
rfoot -180.858 -43.646 157.785
rtoes -9.14409e-014 -1.6537e-013 1.00983e-013
lfemur -11.9548 6.3409 -18.1717
ltibia -3.18055e-014 -2.74323e-014 1.19271e-014
lfoot -9.96883 7.02668 30.406
ltoes 1.41932e-013 -1.19867e-013 3.18055e-014
2527
root 10.0008 3.68303 -0.199919 467.109 -68.9366 105.401
lowerback -24.8511 0.567972 -8.17926
upperback -6.5603 2.22079 -0.207114
thorax 6.16947 0.788981 5.0795
lowerneck 10.8263 -1.70364 1.63192
upperneck 4.26934 -2.25345 -1.62244
head -0.505966 -1.16002 -0.691837
rshoulderjoint -2.69405 8.20886 -29.24
rhumerus 350.369 -5.0754 -412.668
rradius 23.1789 1.82882e-014 1.35174e-013
rwrist -3.96275e-013 5.59218 2.81227e-013
rhand 6.96633 -4.84342 29.367
lshoulderjoint -1.92207 -5.57283 30.0638
lhumerus 355.884 10.7391 416.254
lradius 17.57 3.89618e-014 2.13398e-014
lwrist -4.77096e-013 -9.3763 -5.88311e-014
lhand 7.26117 7.60442 -37.122
rfemur -22.2502 23.6656 3.79409
rtibia 4.95466 -3.18055e-015 -2.38542e-015
rfoot -180.954 -43.579 157.862
rtoes 6.36111e-015 -2.49754e-014 4.65156e-014
lfemur -11.8036 5.9983 -18.0197
ltibia 1.27222e-014 3.97569e-015 -5.56597e-015
lfoot -9.8459 5.69206 31.2929
ltoes 1.86858e-014 -7.95139e-016 3.18055e-014
2528
root 9.99992 3.68265 -0.207659 467.828 -68.9955 106.12
lowerback -24.6861 0.569453 -7.99314
upperback -6.55956 2.16734 -0.258779
thorax 6.1075 0.767575 4.89533
lowerneck 10.9445 -1.69316 1.79673
upperneck 4.28528 -2.22239 -1.7124
head -0.523977 -1.1423 -0.748154
rshoulderjoint -2.66663 8.1744 -29.1369
rhumerus 350.278 -5.16881 -412.673
rradius 23.0705 -1.59028e-015 1.51076e-013
rwrist -5.05179e-013 5.87223 3.31723e-013
rhand 6.96907 -5.07425 29.3428
lshoulderjoint -1.9476 -5.58316 30.2657
lhumerus 356.129 9.90264 416.379
lradius 17.9328 2.8625e-014 3.28616e-014
lwrist -6.08543e-013 -8.9554 -4.80958e-014
lhand 7.1247 7.30938 -36.4927
rfemur -22.0242 23.9295 3.91761
rtibia 4.72688 3.18055e-015 -1.70955e-014
rfoot -181.08 -43.5564 157.975
rtoes 1.18476e-013 -9.42985e-014 -7.99114e-014
lfemur -11.643 5.64976 -17.81
ltibia 1.43125e-014 2.70347e-014 0
lfoot -9.73863 5.48536 31.9962
ltoes -1.32192e-013 8.46823e-014 2.8625e-014
2529
root 9.99931 3.68214 -0.215337 468.471 -69.0385 106.77
lowerback -24.5357 0.546556 -7.88046
upperback -6.56562 2.09519 -0.229776
thorax 6.03962 0.73726 4.83758
lowerneck 11.1119 -1.67427 1.85065
upperneck 4.28239 -2.19231 -1.83446
head -0.555147 -1.12592 -0.795617
rshoulderjoint -2.67027 8.20829 -29.0904
rhumerus 350.217 -5.29051 -412.6
rradius 22.9141 -1.145e-013 -9.70069e-014
rwrist -5.14792e-013 5.89511 -3.51721e-014
rhand 7.27213 -5.03687 29.3547
lshoulderjoint -1.95142 -5.57711 30.32
lhumerus 356.361 9.16107 416.487
lradius 18.3574 -1.76521e-013 7.35255e-014
lwrist -5.27209e-013 -8.35703 1.69374e-013
lhand 7.16882 6.79045 -35.8726
rfemur -21.8807 24.1691 4.04154
rtibia 4.64272 -3.18055e-014 -1.39149e-014
rfoot -181.074 -43.4758 157.997
rtoes 2.94201e-014 2.04809e-013 -3.97569e-014
lfemur -11.5066 5.27726 -17.5918
ltibia 2.22639e-014 -1.11319e-014 -1.03368e-014
lfoot -9.60998 5.36499 32.6754
ltoes -1.18078e-013 1.29806e-013 -8.90555e-014
2530
root 9.99854 3.68161 -0.223245 469.124 -69.1124 107.399
lowerback -24.4153 0.517262 -7.85578
upperback -6.52718 2.04277 -0.171848
thorax 6.02769 0.71379 4.86972
lowerneck 11.2504 -1.64568 1.8025
upperneck 4.25817 -2.16075 -1.9055
head -0.585957 -1.11029 -0.810135
rshoulderjoint -2.68207 8.23837 -29.1037
rhumerus 350.191 -5.34792 -412.505
rradius 22.7478 -1.02175e-013 -1.145e-013
rwrist -6.39466e-015 5.87168 -1.46278e-013
rhand 7.69179 -5.00458 29.4071
lshoulderjoint -1.96374 -5.6184 30.3012
lhumerus 356.671 8.32963 416.586
lradius 18.7211 -9.58142e-014 2.43014e-014
lwrist 1.60626e-014 -8.08991 1.10431e-013
lhand 7.02263 6.65689 -35.3891
rfemur -21.7308 24.396 4.16024
rtibia 4.62298 -4.77083e-014 1.59028e-015
rfoot -180.978 -43.3549 157.95
rtoes -3.49861e-014 -1.7896e-013 3.53837e-014
lfemur -11.3501 4.88679 -17.4076
ltibia -5.40694e-014 -4.37326e-015 1.98785e-014
lfoot -9.46529 5.0736 33.4159
ltoes 5.42682e-014 -1.15891e-013 -1.49486e-013
2531
root 9.99778 3.68092 -0.231082 469.688 -69.1537 107.993
lowerback -24.1273 0.569447 -7.6179
upperback -6.67026 2.02197 -0.303709
thorax 5.74416 0.717179 4.57055
lowerneck 11.5709 -1.65453 2.16033
upperneck 4.30455 -2.13227 -1.98603
head -0.630683 -1.09259 -0.895813
rshoulderjoint -2.64607 8.2657 -28.821
rhumerus 349.783 -5.29543 -412.5
rradius 22.5501 2.42517e-014 -7.95139e-015
rwrist 5.92673e-013 6.88246 -1.08924e-013
rhand 7.81437 -6.00661 29.5903
lshoulderjoint -2.01645 -5.6491 30.681
lhumerus 356.718 7.58728 416.705
lradius 19.0171 3.8763e-014 6.2319e-014
lwrist 6.64688e-013 -7.90287 1.82026e-013
lhand 6.9642 6.54703 -34.9664
rfemur -21.6431 24.6157 4.31972
rtibia 4.6714 -1.27222e-014 1.59028e-015
rfoot -180.862 -43.2453 157.886
rtoes -4.69132e-014 -2.96838e-013 4.09496e-014
lfemur -13.1747 4.43887 -17.1762
ltibia 4.18735 -1.34677e-014 3.18055e-015
lfoot -11.1509 5.90053 34.0501
ltoes 7.85199e-014 -5.31749e-014 -2.8625e-014
2532
root 9.99687 3.68038 -0.23864 470.228 -69.2067 108.495
lowerback -24.1938 0.509237 -7.72324
upperback -6.51346 1.98237 -0.133792
thorax 5.94456 0.69043 4.81237
lowerneck 11.6313 -1.63238 1.89481
upperneck 4.19871 -2.13365 -2.04465
head -0.671966 -1.09462 -0.86853
rshoulderjoint -2.67172 8.24248 -29.0299
rhumerus 349.878 -5.38023 -412.39
rradius 22.3634 -1.21259e-013 -2.3218e-013
rwrist 8.71832e-013 7.1188 -4.42326e-013
rhand 8.21026 -6.14135 29.6963
lshoulderjoint -1.99103 -5.66241 30.4092
lhumerus 357.267 6.78437 416.756
lradius 19.3393 -8.22969e-014 3.85145e-014
lwrist 1.04312e-012 -7.71335 2.70258e-013
lhand 6.86716 6.40622 -34.7078
rfemur -21.5714 24.7999 4.42181
rtibia 4.78254 -1.59028e-014 7.15625e-015
rfoot -180.711 -43.1347 157.799
rtoes -6.91771e-014 -2.07405e-013 1.04163e-013
lfemur -14.2936 3.97013 -17.0128
ltibia 6.86681 -1.2921e-014 7.95139e-015
lfoot -12.1177 6.33823 34.6875
ltoes 8.23962e-014 -9.51185e-014 3.81667e-014
